<svg xmlns="http://www.w3.org/2000/svg" version="1.1" xmlns:xlink="http://www.w3.org/1999/xlink" xmlns:svgjs="http://svgjs.dev/svgjs" width="2000" height="787" viewBox="0 0 2000 787"><g transform="matrix(1,0,0,1,-1.2121212121212466,-1.0899718045114355)"><svg viewBox="0 0 396 156" data-background-color="#929395" preserveAspectRatio="xMidYMid meet" height="787" width="2000" xmlns="http://www.w3.org/2000/svg" xmlns:xlink="http://www.w3.org/1999/xlink"><g id="tight-bounds" transform="matrix(1,0,0,1,0.2400000000000091,0.21605540216491192)"><svg viewBox="0 0 395.52 155.56788919567018" height="155.56788919567018" width="395.52"><g><svg viewBox="0 0 395.52 155.56788919567018" height="155.56788919567018" width="395.52"><g><svg viewBox="0 0 395.52 155.56788919567018" height="155.56788919567018" width="395.52"><g id="textblocktransform"><svg viewBox="0 0 395.52 155.56788919567018" height="155.56788919567018" width="395.52" id="textblock"><g><svg viewBox="0 0 395.52 112.36840710616943" height="112.36840710616943" width="395.52"><rect width="395.52" height="112.36840710616943" x="0" y="0" opacity="1" fill="#ffffff" data-fill-palette-color="tertiary"></rect><g transform="matrix(1,0,0,1,23.461705032,23.46170503200001)"><svg width="348.596589936" viewBox="3.83 -35.55 191.92999999999998 36.04" height="65.44499704216942" data-palette-color="#929395"><path d="M8.33-35.55L8.33-3.83 22.27-3.83 22.27 0 3.83 0 3.83-35.55 8.33-35.55ZM45.07 0L40.57 0Q40.18-0.85 40.01-2.88L40.01-2.88Q37.72 0.49 34.15 0.49L34.15 0.49Q30.56 0.49 28.55-1.53 26.54-3.54 26.54-7.2L26.54-7.2Q26.54-11.23 29.27-13.6 32-15.97 36.77-16.02L36.77-16.02 39.94-16.02 39.94-18.82Q39.94-21.19 38.89-22.19 37.84-23.19 35.69-23.19L35.69-23.19Q33.74-23.19 32.52-22.03 31.3-20.87 31.3-19.09L31.3-19.09 26.98-19.09Q26.98-21.12 28.17-22.96 29.37-24.8 31.39-25.85 33.42-26.9 35.91-26.9L35.91-26.9Q39.96-26.9 42.08-24.89 44.19-22.88 44.24-19.02L44.24-19.02 44.24-5.69Q44.26-2.64 45.07-0.39L45.07-0.39 45.07 0ZM34.81-3.44L34.81-3.44Q36.4-3.44 37.84-4.32 39.28-5.2 39.94-6.52L39.94-6.52 39.94-12.82 37.5-12.82Q34.42-12.77 32.64-11.44 30.86-10.11 30.86-7.71L30.86-7.71Q30.86-5.47 31.76-4.46 32.66-3.44 34.81-3.44ZM61.81-26.56L61.84-22.36Q60.93-22.53 59.88-22.53L59.88-22.53Q56.56-22.53 55.24-18.9L55.24-18.9 55.24 0 50.92 0 50.92-26.42 55.12-26.42 55.2-23.73Q56.93-26.9 60.1-26.9L60.1-26.9Q61.13-26.9 61.81-26.56L61.81-26.56ZM83.24 0L78.75 0Q78.36-0.85 78.19-2.88L78.19-2.88Q75.9 0.49 72.33 0.49L72.33 0.49Q68.74 0.49 66.73-1.53 64.71-3.54 64.71-7.2L64.71-7.2Q64.71-11.23 67.45-13.6 70.18-15.97 74.94-16.02L74.94-16.02 78.12-16.02 78.12-18.82Q78.12-21.19 77.07-22.19 76.02-23.19 73.87-23.19L73.87-23.19Q71.92-23.19 70.7-22.03 69.47-20.87 69.47-19.09L69.47-19.09 65.15-19.09Q65.15-21.12 66.35-22.96 67.55-24.8 69.57-25.85 71.6-26.9 74.09-26.9L74.09-26.9Q78.14-26.9 80.25-24.89 82.37-22.88 82.41-19.02L82.41-19.02 82.41-5.69Q82.44-2.64 83.24-0.39L83.24-0.39 83.24 0ZM72.99-3.44L72.99-3.44Q74.58-3.44 76.02-4.32 77.46-5.2 78.12-6.52L78.12-6.52 78.12-12.82 75.68-12.82Q72.6-12.77 70.82-11.44 69.04-10.11 69.04-7.71L69.04-7.71Q69.04-5.47 69.94-4.46 70.84-3.44 72.99-3.44ZM106.78 0L100.45-14.38 94.2-14.38 94.2 0 89.71 0 89.71-35.55 99.67-35.55Q104.9-35.55 107.58-32.82 110.27-30.1 110.27-24.85L110.27-24.85Q110.27-21.56 108.82-19.1 107.36-16.65 104.7-15.41L104.7-15.41 111.59-0.29 111.59 0 106.78 0ZM94.2-31.69L94.2-18.21 99.62-18.21Q102.43-18.21 104.1-20.02 105.78-21.83 105.78-24.85L105.78-24.85Q105.78-31.69 99.57-31.69L99.57-31.69 94.2-31.69ZM125.09 0.49L125.09 0.49Q120.15 0.49 117.52-2.45 114.88-5.4 114.83-11.08L114.83-11.08 114.83-14.28Q114.83-20.19 117.41-23.55 119.98-26.9 124.6-26.9L124.6-26.9Q129.24-26.9 131.53-23.95 133.83-21 133.87-14.75L133.87-14.75 133.87-11.91 119.13-11.91 119.13-11.3Q119.13-7.06 120.73-5.13 122.33-3.2 125.33-3.2L125.33-3.2Q127.23-3.2 128.69-3.92 130.14-4.64 131.41-6.2L131.41-6.2 133.65-3.47Q130.85 0.49 125.09 0.49ZM124.6-23.19L124.6-23.19Q121.91-23.19 120.62-21.35 119.32-19.51 119.15-15.63L119.15-15.63 129.55-15.63 129.55-16.21Q129.38-19.97 128.2-21.58 127.01-23.19 124.6-23.19ZM157.14 0L152.65 0Q152.26-0.85 152.08-2.88L152.08-2.88Q149.79 0.49 146.23 0.49L146.23 0.49Q142.64 0.49 140.62-1.53 138.61-3.54 138.61-7.2L138.61-7.2Q138.61-11.23 141.34-13.6 144.08-15.97 148.84-16.02L148.84-16.02 152.01-16.02 152.01-18.82Q152.01-21.19 150.96-22.19 149.91-23.19 147.76-23.19L147.76-23.19Q145.81-23.19 144.59-22.03 143.37-20.87 143.37-19.09L143.37-19.09 139.05-19.09Q139.05-21.12 140.24-22.96 141.44-24.8 143.47-25.85 145.49-26.9 147.98-26.9L147.98-26.9Q152.04-26.9 154.15-24.89 156.26-22.88 156.31-19.02L156.31-19.02 156.31-5.69Q156.33-2.64 157.14-0.39L157.14-0.39 157.14 0ZM146.88-3.44L146.88-3.44Q148.47-3.44 149.91-4.32 151.35-5.2 152.01-6.52L152.01-6.52 152.01-12.82 149.57-12.82Q146.49-12.77 144.71-11.44 142.93-10.11 142.93-7.71L142.93-7.71Q142.93-5.47 143.83-4.46 144.74-3.44 146.88-3.44ZM172.17-3.2L172.17-3.2Q174.32-3.2 175.62-4.53 176.91-5.86 177.03-8.33L177.03-8.33 181.11-8.33Q180.96-4.52 178.41-2.01 175.86 0.49 172.17 0.49L172.17 0.49Q167.27 0.49 164.69-2.6 162.12-5.69 162.12-11.79L162.12-11.79 162.12-14.7Q162.12-20.68 164.68-23.79 167.24-26.9 172.15-26.9L172.15-26.9Q176.2-26.9 178.58-24.34 180.96-21.78 181.11-17.33L181.11-17.33 177.03-17.33Q176.89-20.26 175.63-21.73 174.37-23.19 172.15-23.19L172.15-23.19Q169.27-23.19 167.88-21.3 166.49-19.41 166.44-15.09L166.44-15.09 166.44-11.72Q166.44-7.06 167.82-5.13 169.2-3.2 172.17-3.2ZM187.46-32.81L191.75-32.81 191.75-26.42 195.73-26.42 195.73-22.92 191.75-22.92 191.75-6.54Q191.75-4.98 192.27-4.17 192.78-3.37 194.02-3.37L194.02-3.37Q194.88-3.37 195.76-3.66L195.76-3.66 195.71 0Q194.24 0.49 192.7 0.49L192.7 0.49Q190.14 0.49 188.8-1.34 187.46-3.17 187.46-6.52L187.46-6.52 187.46-22.92 183.43-22.92 183.43-26.42 187.46-26.42 187.46-32.81Z" opacity="1" transform="matrix(1,0,0,1,0,0)" fill="#000000" class="wordmark-text-0" data-fill-palette-color="quaternary" id="text-0"></path></svg></g></svg></g><g transform="matrix(1,0,0,1,0,124.09925962216943)"><svg viewBox="0 0 395.52 31.468629573500756" height="31.468629573500756" width="395.52"><g transform="matrix(1,0,0,1,0,0)"><svg width="395.52" viewBox="3.95 -36.15 461.85 36.75" height="31.468629573500756" data-palette-color="#375a82"><path d="M3.95 0L3.95-34.3 8.7-34.3 8.7-4.15 26.3-4.15 26.3 0 3.95 0ZM38.3 0.6Q34.9 0.6 32.25-1 29.6-2.6 29.6-6.8L29.6-6.8Q29.6-11.85 34.1-13.73 38.6-15.6 47.1-15.6L47.1-15.6 47.1-18.5Q47.1-20.8 45.8-22.03 44.5-23.25 41.1-23.25L41.1-23.25Q37.9-23.25 36.52-22.05 35.15-20.85 35.15-19.1L35.15-19.1 35.15-18.5 30.9-18.5Q30.85-18.8 30.85-19.6L30.85-19.6Q30.85-23.1 33.75-25 36.65-26.9 41.5-26.9L41.5-26.9Q46.4-26.9 48.95-24.85 51.5-22.8 51.5-19.05L51.5-19.05 51.5-4.8Q51.5-3.9 52-3.48 52.5-3.05 53.25-3.05L53.25-3.05 55.25-3.05 55.25-0.2Q53.95 0.4 51.85 0.4L51.85 0.4Q50.15 0.4 49-0.63 47.85-1.65 47.45-3.35L47.45-3.35 47.1-3.35Q45.75-1.5 43.42-0.45 41.1 0.6 38.3 0.6L38.3 0.6ZM39.45-3.05Q41.4-3.05 43.15-3.85 44.9-4.65 46-6.23 47.1-7.8 47.1-10.05L47.1-10.05 47.1-11.95Q40.65-11.95 37.42-10.93 34.2-9.9 34.2-7.05L34.2-7.05Q34.2-4.9 35.52-3.98 36.85-3.05 39.45-3.05L39.45-3.05ZM58.95 0L58.95-26.3 62.3-26.3 62.8-22.35 63.09-22.35Q63.84-24.3 65.34-25.6 66.84-26.9 69.3-26.9L69.3-26.9Q70.64-26.9 71.64-26.5L71.64-26.5 71.64-22.25 69.8-22.25Q67-22.25 65.17-20.63 63.34-19 63.34-15.55L63.34-15.55 63.34 0 58.95 0ZM82.74 0.6Q79.34 0.6 76.69-1 74.04-2.6 74.04-6.8L74.04-6.8Q74.04-11.85 78.54-13.73 83.04-15.6 91.54-15.6L91.54-15.6 91.54-18.5Q91.54-20.8 90.24-22.03 88.94-23.25 85.54-23.25L85.54-23.25Q82.34-23.25 80.97-22.05 79.59-20.85 79.59-19.1L79.59-19.1 79.59-18.5 75.34-18.5Q75.29-18.8 75.29-19.6L75.29-19.6Q75.29-23.1 78.19-25 81.09-26.9 85.94-26.9L85.94-26.9Q90.84-26.9 93.39-24.85 95.94-22.8 95.94-19.05L95.94-19.05 95.94-4.8Q95.94-3.9 96.44-3.48 96.94-3.05 97.69-3.05L97.69-3.05 99.69-3.05 99.69-0.2Q98.39 0.4 96.29 0.4L96.29 0.4Q94.59 0.4 93.44-0.63 92.29-1.65 91.89-3.35L91.89-3.35 91.54-3.35Q90.19-1.5 87.87-0.45 85.54 0.6 82.74 0.6L82.74 0.6ZM83.89-3.05Q85.84-3.05 87.59-3.85 89.34-4.65 90.44-6.23 91.54-7.8 91.54-10.05L91.54-10.05 91.54-11.95Q85.09-11.95 81.87-10.93 78.64-9.9 78.64-7.05L78.64-7.05Q78.64-4.9 79.97-3.98 81.29-3.05 83.89-3.05L83.89-3.05ZM110.34 0L100.69-26.3 105.34-26.3 109.99-13.15Q110.99-10.35 112.59-4.9L112.59-4.9 112.84-4.9Q114.29-10.05 115.39-13.15L115.39-13.15 119.99-26.3 124.39-26.3 114.74 0 110.34 0ZM139.54 0.6Q133.19 0.6 130.09-2.75 126.99-6.1 126.99-13.15L126.99-13.15Q126.99-20.2 130.09-23.55 133.19-26.9 139.54-26.9L139.54-26.9Q145.24-26.9 148.06-23.88 150.89-20.85 150.89-14.15L150.89-14.15 150.89-11.95 131.54-11.95Q131.79-7.4 133.71-5.23 135.64-3.05 139.54-3.05L139.54-3.05Q142.69-3.05 144.64-4.5 146.59-5.95 146.59-8.95L146.59-8.95 150.89-8.95Q150.89-4.35 147.71-1.88 144.54 0.6 139.54 0.6L139.54 0.6ZM131.64-15.6L146.29-15.6Q146.29-23.25 139.54-23.25L139.54-23.25Q135.79-23.25 133.91-21.45 132.04-19.65 131.64-15.6L131.64-15.6ZM156.19 0L156.19-36.15 160.59-36.15 160.59 0 156.19 0ZM165.53-11.05L165.53-15.95 179.03-15.95 179.03-11.05 165.53-11.05ZM185.18 0L185.18-34.3 189.93-34.3 189.93 0 185.18 0ZM197.83 0L197.83-26.3 201.18-26.3 201.68-22.75 202.03-22.75Q204.93-26.9 210.88-26.9L210.88-26.9Q214.83-26.9 216.95-24.78 219.08-22.65 219.08-17.95L219.08-17.95 219.08 0 214.68 0 214.68-17.65Q214.68-20.8 213.28-22.03 211.88-23.25 209.23-23.25L209.23-23.25Q207.33-23.25 205.73-22.33 204.13-21.4 203.18-19.65 202.23-17.9 202.23-15.55L202.23-15.55 202.23 0 197.83 0ZM236.78 0.6Q230.43 0.6 227.33-2.75 224.23-6.1 224.23-13.15L224.23-13.15Q224.23-20.2 227.33-23.55 230.43-26.9 236.78-26.9L236.78-26.9Q242.48-26.9 245.3-23.88 248.13-20.85 248.13-14.15L248.13-14.15 248.13-11.95 228.78-11.95Q229.03-7.4 230.95-5.23 232.88-3.05 236.78-3.05L236.78-3.05Q239.93-3.05 241.88-4.5 243.83-5.95 243.83-8.95L243.83-8.95 248.13-8.95Q248.13-4.35 244.95-1.88 241.78 0.6 236.78 0.6L236.78 0.6ZM228.88-15.6L243.53-15.6Q243.53-23.25 236.78-23.25L236.78-23.25Q233.03-23.25 231.15-21.45 229.28-19.65 228.88-15.6L228.88-15.6ZM253.42 0L253.42-26.3 256.77-26.3 257.27-22.35 257.57-22.35Q258.32-24.3 259.82-25.6 261.32-26.9 263.77-26.9L263.77-26.9Q265.12-26.9 266.12-26.5L266.12-26.5 266.12-22.25 264.27-22.25Q261.47-22.25 259.65-20.63 257.82-19 257.82-15.55L257.82-15.55 257.82 0 253.42 0ZM276.02 0.55Q273.32 0.55 272.07-1.05 270.82-2.65 270.82-5L270.82-5 270.82-22.65 267.62-22.65 267.62-26.3 270.87-26.3 271.82-33.6 275.22-33.6 275.22-26.3 279.67-26.3 279.67-22.65 275.22-22.65 275.22-5.4Q275.22-3.05 277.42-3.05L277.42-3.05 279.67-3.05 279.67-0.15Q279.02 0.15 277.97 0.35 276.92 0.55 276.02 0.55L276.02 0.55ZM283.97-31.4L283.97-36.15 288.32-36.15 288.32-31.4 283.97-31.4ZM283.97 0L283.97-26.3 288.37-26.3 288.37 0 283.97 0ZM302.22 0.6Q298.82 0.6 296.17-1 293.52-2.6 293.52-6.8L293.52-6.8Q293.52-11.85 298.02-13.73 302.52-15.6 311.02-15.6L311.02-15.6 311.02-18.5Q311.02-20.8 309.72-22.03 308.42-23.25 305.02-23.25L305.02-23.25Q301.82-23.25 300.44-22.05 299.07-20.85 299.07-19.1L299.07-19.1 299.07-18.5 294.82-18.5Q294.77-18.8 294.77-19.6L294.77-19.6Q294.77-23.1 297.67-25 300.57-26.9 305.42-26.9L305.42-26.9Q310.32-26.9 312.87-24.85 315.42-22.8 315.42-19.05L315.42-19.05 315.42-4.8Q315.42-3.9 315.92-3.48 316.42-3.05 317.17-3.05L317.17-3.05 319.17-3.05 319.17-0.2Q317.87 0.4 315.77 0.4L315.77 0.4Q314.07 0.4 312.92-0.63 311.77-1.65 311.37-3.35L311.37-3.35 311.02-3.35Q309.67-1.5 307.34-0.45 305.02 0.6 302.22 0.6L302.22 0.6ZM303.37-3.05Q305.32-3.05 307.07-3.85 308.82-4.65 309.92-6.23 311.02-7.8 311.02-10.05L311.02-10.05 311.02-11.95Q304.57-11.95 301.34-10.93 298.12-9.9 298.12-7.05L298.12-7.05Q298.12-4.9 299.44-3.98 300.77-3.05 303.37-3.05L303.37-3.05ZM321.11-11.05L321.11-15.95 334.61-15.95 334.61-11.05 321.11-11.05ZM340.11 0L340.11-34.3 357.96-34.3Q363.11-34.3 365.86-31.65 368.61-29 368.61-24.55L368.61-24.55Q368.61-21.05 366.94-18.5 365.26-15.95 362.31-14.85L362.31-14.85 370.21 0 364.91 0 357.46-14.15 344.86-14.15 344.86 0 340.11 0ZM344.86-18.3L357.71-18.3Q360.51-18.3 362.16-19.95 363.81-21.6 363.81-24.5L363.81-24.5Q363.81-27.2 362.26-28.68 360.71-30.15 357.71-30.15L357.71-30.15 344.86-30.15 344.86-18.3ZM386.76 0.6Q380.41 0.6 377.31-2.75 374.21-6.1 374.21-13.15L374.21-13.15Q374.21-20.2 377.31-23.55 380.41-26.9 386.76-26.9L386.76-26.9Q392.46-26.9 395.28-23.88 398.11-20.85 398.11-14.15L398.11-14.15 398.11-11.95 378.76-11.95Q379.01-7.4 380.93-5.23 382.86-3.05 386.76-3.05L386.76-3.05Q389.91-3.05 391.86-4.5 393.81-5.95 393.81-8.95L393.81-8.95 398.11-8.95Q398.11-4.35 394.93-1.88 391.76 0.6 386.76 0.6L386.76 0.6ZM378.86-15.6L393.51-15.6Q393.51-23.25 386.76-23.25L386.76-23.25Q383.01-23.25 381.13-21.45 379.26-19.65 378.86-15.6L378.86-15.6ZM410.56 0.6Q407.16 0.6 404.51-1 401.86-2.6 401.86-6.8L401.86-6.8Q401.86-11.85 406.36-13.73 410.86-15.6 419.36-15.6L419.36-15.6 419.36-18.5Q419.36-20.8 418.06-22.03 416.76-23.25 413.36-23.25L413.36-23.25Q410.16-23.25 408.78-22.05 407.41-20.85 407.41-19.1L407.41-19.1 407.41-18.5 403.16-18.5Q403.11-18.8 403.11-19.6L403.11-19.6Q403.11-23.1 406.01-25 408.91-26.9 413.76-26.9L413.76-26.9Q418.66-26.9 421.21-24.85 423.76-22.8 423.76-19.05L423.76-19.05 423.76-4.8Q423.76-3.9 424.26-3.48 424.76-3.05 425.51-3.05L425.51-3.05 427.51-3.05 427.51-0.2Q426.21 0.4 424.11 0.4L424.11 0.4Q422.41 0.4 421.26-0.63 420.11-1.65 419.71-3.35L419.71-3.35 419.36-3.35Q418.01-1.5 415.68-0.45 413.36 0.6 410.56 0.6L410.56 0.6ZM411.71-3.05Q413.66-3.05 415.41-3.85 417.16-4.65 418.26-6.23 419.36-7.8 419.36-10.05L419.36-10.05 419.36-11.95Q412.91-11.95 409.68-10.93 406.46-9.9 406.46-7.05L406.46-7.05Q406.46-4.9 407.78-3.98 409.11-3.05 411.71-3.05L411.71-3.05ZM441.2 0.6Q435.2 0.6 432.4-2.73 429.6-6.05 429.6-13.15L429.6-13.15Q429.6-20.2 432.43-23.55 435.25-26.9 441.2-26.9L441.2-26.9Q446.6-26.9 449.1-24.3 451.6-21.7 451.6-16.55L451.6-16.55 447.1-16.55Q447.1-20.1 445.83-21.68 444.55-23.25 441.2-23.25L441.2-23.25Q437.55-23.25 435.85-20.88 434.15-18.5 434.15-13.15L434.15-13.15 434.15-12.95Q434.15-7.65 435.8-5.35 437.45-3.05 441.2-3.05L441.2-3.05Q444.5-3.05 445.93-4.73 447.35-6.4 447.35-9.75L447.35-9.75 451.6-9.75Q451.6-5.25 449.05-2.33 446.5 0.6 441.2 0.6L441.2 0.6ZM462.15 0.55Q459.45 0.55 458.2-1.05 456.95-2.65 456.95-5L456.95-5 456.95-22.65 453.75-22.65 453.75-26.3 457-26.3 457.95-33.6 461.35-33.6 461.35-26.3 465.8-26.3 465.8-22.65 461.35-22.65 461.35-5.4Q461.35-3.05 463.55-3.05L463.55-3.05 465.8-3.05 465.8-0.15Q465.15 0.15 464.1 0.35 463.05 0.55 462.15 0.55L462.15 0.55Z" opacity="1" transform="matrix(1,0,0,1,0,0)" fill="#ffffff" class="slogan-text-1" data-fill-palette-color="secondary" id="text-1"></path></svg></g></svg></g></svg></g></svg></g></svg></g><defs></defs></svg><rect width="395.52" height="155.56788919567018" fill="none" stroke="none" visibility="hidden"></rect></g></svg></g></svg>